# xmcd
#
# Track frame offsets: 
#        150
#        16539
#        39650
#        68119
#        86898
#        107483
#        133913
#        157102
#        178574
#        191539
#
# Disc length: 2855 seconds
#
# Revision: 4
# Processed by: cddbd v1.5.2PL0 Copyright (c) Steve Scherf et al.
# Submitted via: ExactAudioCopy v1.2
#
DISCID=800b250a
DTITLE=Yavuz Çetin - Stılık
DYEAR=2001
DGENRE=Rock
TTITLE0=Cherokee
TTITLE1=Oyuncak Dünya
TTITLE2=Benimle Uçmak ister misin?
TTITLE3=Bul Beni
TTITLE4=Sadece Senin Olmak
TTITLE5=Yaşamak istemem
TTITLE6=Kurtar Beni
TTITLE7=Köle
TTITLE8=İstanbul'a Ait
TTITLE9=Herşey Biter
EXTD=YEAR: 2001
EXTT0=
EXTT1=
EXTT2=
EXTT3=
EXTT4=
EXTT5=
EXTT6=
EXTT7=
EXTT8=
EXTT9=
PLAYORDER=
